<?xml version="1.0" standalone="no"?>
<!DOCTYPE svg PUBLIC "-//W3C//DTD SVG 1.1//EN" "http://www.w3.org/Graphics/SVG/1.1/DTD/svg11.dtd">
<svg xmlns="http://www.w3.org/2000/svg"><metadata>This SVG WebFont was generated by YouWorkForThem.
Copyright 2010 URW++ Design &amp; Development</metadata><defs><font horiz-adv-x="1228" id="ywftsvg"><font-face ascent="1364" bbox="-35 -743 2071 1845" cap-height="1364" descent="-684" font-family="" font-stretch="normal" font-weight="400" panose-1="0 0 5 0 0 0 0 0 0 0" underline-position="0" underline-thickness="0" unicode-range="U+0020-FB02" units-per-em="2048" x-height="983"/><missing-glyph horiz-adv-x="436"/><glyph glyph-name=".notdef" horiz-adv-x="436"/><glyph glyph-name="glyph1" horiz-adv-x="0"/><glyph glyph-name="glyph2" horiz-adv-x="682"/><glyph glyph-name="space" horiz-adv-x="436" unicode=" "/><glyph d="M197 1364h198v-457l-55 -594h-88l-55 582v469zM197 0v207h198v-207h-198z" glyph-name="exclam" horiz-adv-x="524" unicode="!"/><glyph d="M594 803h-98l-35 561h166zM309 803h-98l-35 561h168z" glyph-name="quotedbl" horiz-adv-x="804" unicode="&quot;"/><glyph d="M739 823h-256l-41 -256h258zM1028 567v-118h-223l-70 -449h-121l68 449h-256l-72 -449h-118l67 449h-219v118h238l38 256h-219v119h238l65 422h121l-65 -422h258l65 422h123l-65 -422h202v-119h-221l-39 -256h205z" glyph-name="numbersign" horiz-adv-x="1159" unicode="#"/><glyph d="M670 561v-416q246 25 245 215q0 78 -47.5 117t-197.5 84zM356 946q0 -72 48 -114.5t161 -69.5v379q-209 -39 -209 -195zM565 1374h109v-82q373 -37 405 -360h-188q-29 115 -73 155.5t-148 51.5v-404q178 -43 248 -76q186 -79 186 -283t-176 -313q-92 -57 -258 -67v-156 h-105v154q-205 10 -324.5 131t-115.5 311h188q12 -147 66.5 -210.5t185.5 -80.5v447q-176 45 -243 86q-145 86 -146 254q0 94 52.5 178t130.5 123t206 57v84z" glyph-name="dollar" unicode="$"/><glyph d="M956 373q0 -305 160 -303q84 0 122 67t38 225t-36 230t-125 72t-130 -105q-29 -80 -29 -186zM203 973q-1 -295 159 -295t160 302q0 152 -37.5 220t-119.5 68q-162 0 -162 -295zM1112 774q297 0 297 -416q0 -188 -76 -291.5t-215 -103.5t-217 105.5t-78 295.5t77 300 t212 110zM412 0l540 1364h119l-541 -1364h-118zM360 1378q139 0 217 -102t78 -296t-76.5 -302.5t-216 -108.5t-217 106.5t-77.5 296.5t76.5 298t215.5 108z" glyph-name="percent" horiz-adv-x="1478" unicode="%"/><glyph d="M723 1104q0 66 -44 106.5t-117 40.5t-115.5 -37.5t-42.5 -107.5t90 -170l61 -70q98 74 133 123t35 115zM248 348q0 -90 78 -158.5t180 -68.5t166.5 37t138.5 131l-313 368q-143 -90 -196.5 -154.5t-53.5 -154.5zM1171 172h91v-174h-152q-63 0 -100 47l-86 111 q-127 -119 -223 -155t-207 -36q-190 0 -313.5 108.5t-123.5 271.5t119 273q57 55 227 164q-98 100 -139 174t-41 150q0 125 93.5 205t245.5 80t250.5 -79t98.5 -217t-145 -264q-28 -26 -109 -86l232 -278q25 90 31 186h190q-10 -115 -24.5 -173t-59.5 -167l82 -110 q23 -31 63 -31z" glyph-name="ampersand" horiz-adv-x="1284" unicode="&amp;"/><glyph d="M250 803h-98l-35 561h168z" glyph-name="quotesingle" horiz-adv-x="401" unicode="'"/><glyph d="M233 552q0 -230 56.5 -415.5t195.5 -431.5h-141q-283 389 -283 840q0 225 59.5 406.5t209.5 410.5h147q-133 -270 -168 -365q-76 -215 -76 -445z" glyph-name="parenleft" horiz-adv-x="557" unicode="("/><glyph d="M502 537q0 -391 -213 -721q-17 -27 -76 -109h-143q135 256 163 336q92 238 93 508q0 180 -46.5 367.5t-195.5 445.5h139q155 -218 217 -418t62 -409z" glyph-name="parenright" horiz-adv-x="563" unicode=")"/><glyph d="M412 1364h149v-211l180 107l74 -130l-184 -108l188 -107l-74 -124l-184 106v-215h-147v209l-183 -107l-71 127l184 109l-190 106l71 127l187 -108v219z" glyph-name="asterisk" horiz-adv-x="974" unicode="*"/><glyph d="M18 766h426v399h134v-399h426v-133h-424v-400h-134v400h-428v133z" glyph-name="plus" horiz-adv-x="1024" unicode="+"/><glyph d="M141 0v211h203v-180q0 -242 -205 -314v105q51 45 66.5 76.5t17.5 101.5h-82z" glyph-name="comma" horiz-adv-x="483" unicode=","/><glyph d="M139 406v161h469v-161h-469z" glyph-name="hyphen" horiz-adv-x="747" unicode="-"/><glyph d="M139 0v211h201v-211h-201z" glyph-name="period" horiz-adv-x="479" unicode="."/><glyph d="M68 -78l432 1442h114l-432 -1442h-114z" glyph-name="slash" horiz-adv-x="681" unicode="/"/><glyph d="M295 682q0 -561 315 -561q330 0 330 561q0 354 -141 471q-81 64 -183 64q-141 0 -231 -125t-90 -410zM616 1382q176 0 308 -100q94 -72 135 -164q78 -184 78 -428q0 -150 -25 -286t-65 -207q-66 -115 -179.5 -178.5t-251.5 -63.5q-250 0 -387 172t-137 556t166 556 q137 143 358 143z" glyph-name="zero" unicode="0"/><glyph d="M258 997v119q158 23 231.5 79t96.5 175h155v-1145q0 -37 10.5 -47t49.5 -10h94v-168h-510v168h90q45 0 59.5 13.5t14.5 51.5v764h-291z" glyph-name="one" unicode="1"/><glyph d="M1085 0h-944q0 207 109.5 345t398.5 298q145 84 197.5 150.5t52.5 177.5t-70.5 179.5t-197.5 68.5t-199 -72t-72 -203q0 -43 2 -67h-198q2 125 19.5 192.5t60.5 132.5q125 182 387 182q211 0 340 -115.5t129 -305.5q0 -266 -279 -420l-182 -101q-227 -127 -270 -256 q0 -2 -9 -22h500q23 0 37 16.5t14 42.5v58h174v-281z" glyph-name="two" unicode="2"/><glyph d="M635 117q133 0 217 71.5t84 186.5q0 82 -44 145.5t-108 85.5t-103.5 26.5t-186.5 4.5v154q78 -4 79 -5q139 0 217 58t78 158t-68.5 158.5t-183.5 58.5q-147 0 -223 -103q-49 -66 -55 -186h-197q12 131 47 210t107 140q119 104 321.5 104t328.5 -104t126 -272 q0 -109 -54 -178.5t-173 -110.5q115 -35 157 -66q135 -96 135 -286t-133 -301t-362 -111q-305 0 -451 192q-45 59 -66.5 119.5t-37.5 171.5h205q25 -150 67 -202q96 -119 277 -119z" glyph-name="three" unicode="3"/><glyph d="M719 481v570l-434 -570h434zM90 328v161l668 883h153v-889h213v-153h-213v-121q0 -39 39 -39h78v-170h-424v170h62q29 0 41 11.5t12 37.5v109h-629z" glyph-name="four" unicode="4"/><glyph d="M622 133q128 0 217 88t89 222t-85 219.5t-222 85.5q-92 0 -150.5 -27t-126.5 -103h-194l147 750h754v-287h-172v68q0 29 -9.5 38t-38.5 9h-385l-84 -358q156 82 283 82q209 0 347 -134.5t138 -341.5t-142 -341t-372 -134t-372 142q-59 57 -89 120.5t-46 167.5h200 q25 -82 44.5 -120.5t52.5 -67.5q88 -78 216 -78z" glyph-name="five" unicode="5"/><glyph d="M636 725q-128 0 -209 -80t-81 -208t88 -222t211 -94t203 84t80 217t-82 218t-210 85zM648 1214q-95 0 -164.5 -43t-100.5 -111t-43 -127t-23 -185q88 74 163 104.5t171 30.5q205 0 340 -133.5t135 -335.5t-132 -330.5t-339 -128.5q-143 0 -262 66.5t-184 185.5 q-90 161 -90 483t133 506t387 184q137 0 247.5 -59t168.5 -162q33 -59 45 -176h-199q-33 121 -95.5 176t-157.5 55z" glyph-name="six" unicode="6"/><glyph d="M166 1079v281h930v-141q-236 -203 -383.5 -530t-169.5 -689h-209q25 207 50.5 313.5t97.5 282.5t147.5 295t191.5 242l56 59h-496q-16 0 -29.5 -12.5t-13.5 -28.5v-72h-172z" glyph-name="seven" unicode="7"/><glyph d="M611 1223q-116 0 -184.5 -53.5t-68.5 -145.5t72 -152.5t182 -60.5t180 59.5t70 151.5t-67.5 146.5t-183.5 54.5zM620 657q-140 0 -228.5 -76.5t-88.5 -199.5t84.5 -192.5t232.5 -69.5t231 68.5t83 191.5t-87 200.5t-227 77.5zM168 1030q0 156 124 254t322 98t318.5 -97 t120.5 -261q0 -100 -48.5 -163.5t-168.5 -121.5q152 -45 221 -129t69 -225q0 -197 -135 -310.5t-370 -113.5q-283 0 -408 148q-104 121 -104 287t118 266q41 32 164 83q-223 73 -223 285z" glyph-name="eight" unicode="8"/><glyph d="M599 1219q-124 0 -205 -87.5t-81 -216.5t84 -217t209 -88t209 81t84 210t-88 223.5t-212 94.5zM600 121q205 0 287 203q31 82 41 270q-94 -80 -169 -111.5t-175 -31.5q-199 0 -335 135t-136 335t135 330.5t346 130.5q145 0 261 -65.5t181 -183.5q90 -163 90 -473 t-102 -472q-143 -233 -426 -233q-236 0 -369 164q-70 88 -82 229h195q35 -121 95.5 -174t162.5 -53z" glyph-name="nine" unicode="9"/><glyph d="M143 971h203v-209h-203v209zM139 0v211h201v-211h-201z" glyph-name="colon" horiz-adv-x="485" unicode=":"/><glyph d="M139 756v211h201v-211h-201zM141 -2v217h197v-199q0 -109 -45 -178.5t-154 -124.5v113q43 35 57.5 66.5t22.5 105.5h-78z" glyph-name="semicolon" horiz-adv-x="479" unicode=";"/><glyph d="M1004 1188v-144l-814 -352l814 -346v-143l-986 413v148z" glyph-name="less" horiz-adv-x="1024" unicode="&lt;"/><glyph d="M18 612h986v-133h-986v133zM18 918h986v-134h-986v134z" glyph-name="equal" horiz-adv-x="1024" unicode="="/><glyph d="M18 203v143l813 352l-813 344v146l986 -414v-145z" glyph-name="greater" horiz-adv-x="1024" unicode=">"/><glyph d="M377 0v207h196v-207h-196zM375 350q-1 117 27 180t54.5 99.5t117.5 124.5t124 141t33 131t-64.5 136.5t-176.5 58.5q-226 0 -238 -314h-189q4 184 64 277q125 201 379 200q190 0 305 -101t115 -269q0 -100 -40 -175t-146 -171t-136.5 -151.5t-30.5 -151.5v-46h-196 q0 12 -2 23v8z" glyph-name="question" horiz-adv-x="978" unicode="?"/><glyph d="M893 711q0 200 -185 200q-93 0 -163 -81.5t-70 -191.5t53.5 -170t145.5 -60t155.5 85t63.5 218zM14 678q0 303 207 505.5t503 202.5t481.5 -166t185.5 -408q0 -348 -192.5 -443t-250.5 -95q-110 0 -110 105v10q-86 -106 -215 -106t-210 91.5t-81 257.5t106.5 288 t268.5 122q84 0 138 -33.5t93 -109.5l25 119h118l-98 -539q-10 -66 -10 -69q0 -35 35 -35q70 0 168 98q127 123 127 327t-160 349t-410 145t-426 -176t-176 -437t177 -437t440 -176q129 0 228 45.5t210 156.5h121q-82 -100 -187 -195.5t-375 -94.5q-317 0 -524 197.5 t-207 500.5z" glyph-name="at" horiz-adv-x="1429" unicode="@"/><glyph d="M469 563h438l-223 582zM18 0v170h66q41 0 51 25l363 923q14 41 14 51q0 25 -43 25h-66v170h381l439 -1108q14 -32 21 -52t18.5 -27t44.5 -7h59v-170h-430v170h63q31 0 39.5 4t8.5 16.5t-25 77.5l-57 146h-545l-62 -160q-23 -61 -22 -64q0 -20 65 -20h50v-170h-433z" glyph-name="A" horiz-adv-x="1386" unicode="A"/><glyph d="M371 784h336q139 0 218 55.5t79 154.5t-81 153.5t-233 54.5h-319v-418zM371 170h413q137 0 201 51t64 164q0 248 -334 248h-344v-463zM61 0v170h70q29 0 38 20.5t9 77.5v834q0 66 -8 83t-39 17h-68v166h670q175 0 267 -47t141 -133t49 -187t-45 -161t-168 -119 q104 -37 152 -71t82 -108.5t34 -167.5t-49 -182.5t-139 -140.5t-277 -51h-719z" glyph-name="B" horiz-adv-x="1300" unicode="B"/><glyph d="M1102 1364h166v-412h-178q-53 113 -84 148q-106 123 -299 123t-315 -148.5t-122 -394.5t122 -403.5t312 -157.5t297 131q37 45 55.5 101.5t30.5 158.5h201q-14 -141 -42.5 -221t-98.5 -157t-188.5 -127t-251.5 -50q-281 0 -461 201.5t-180 521.5t178 514t475 194 q115 0 193.5 -29.5t189.5 -113.5v121z" glyph-name="C" horiz-adv-x="1359" unicode="C"/><glyph d="M373 168h291q197 0 298 132t101 383t-96.5 382t-278.5 131h-315v-1028zM63 0v168h48q43 0 56 20.5t13 85.5v834q0 55 -10 71.5t-45 16.5h-59v168h593q324 0 474 -211q129 -178 129 -440q0 -354 -179 -555q-61 -70 -168.5 -114t-222.5 -44h-629z" glyph-name="D" horiz-adv-x="1327" unicode="D"/><glyph d="M61 1194v170h1082v-281h-168v68q0 43 -82 43h-522v-399h686v-162h-686v-461h561q35 0 48 11.5t13 37.5v62h170v-283h-1100v170h62q33 0 43 17.5t10 74.5v834q0 57 -11 77.5t-42 20.5h-64z" glyph-name="E" horiz-adv-x="1220" unicode="E"/><glyph d="M59 0v166h62q39 0 48 20.5t9 102.5v827q0 47 -11 61.5t-46 14.5h-60v168h1061v-281h-172v60q0 35 -16 44t-74 9h-487v-401h602v-162h-602v-420l-2 -33q6 -10 43 -10h67v-166h-422z" glyph-name="F" horiz-adv-x="1181" unicode="F"/><glyph d="M1118 1364h170v-416h-190q-29 78 -51.5 115t-61.5 70q-117 94 -273 94t-266 -88q-164 -133 -163 -443q0 -252 108.5 -409.5t317.5 -157.5q139 0 246.5 72.5t140.5 189.5q14 57 22 170h-403v172h604v-737h-135l-49 154q-57 -57 -95 -84q-141 -102 -338 -103 q-274 0 -450 204t-176 523q0 389 239 576q164 125 384 125t370 -113q12 -10 49 -39v125z" glyph-name="G" horiz-adv-x="1429" unicode="G"/><glyph d="M57 1196v168h422v-168h-67q-33 0 -40 -15.5t-7 -84.5v-299h710v313q0 49 -11 67.5t-42 18.5h-57v168h421v-168h-63q-55 0 -55 -66v-878q0 -51 10 -67.5t43 -16.5h63v-168h-421v168h59q53 0 53 84v385h-710v-393q0 -48 10 -62t53 -14h51v-168h-422v168h54q39 0 50 19.5 t11 86.5v799q-2 100 -10 109q-18 14 -51 14h-54z" glyph-name="H" horiz-adv-x="1449" unicode="H"/><glyph d="M61 1194v170h422v-170h-55q-61 0 -61 -47v-866q0 -80 9 -96.5t50 -16.5h57v-168h-420v168h58q37 0 47 16.5t10 69.5v887q0 53 -59 53h-58z" glyph-name="I" horiz-adv-x="550" unicode="I"/><glyph d="M412 131q117 0 164 58.5t47 205.5v713q0 57 -10.5 72.5t-47.5 15.5h-59v168h430v-168h-72q-41 0 -41 -78v-702q0 -199 -57 -291q-98 -156 -350 -156t-340 166q-48 86 -66 311h199q8 -193 47 -254t156 -61z" glyph-name="J" horiz-adv-x="1007" unicode="J"/><glyph d="M63 0v168h64q33 0 41 18.5t8 102.5v792q0 78 -8 96.5t-41 18.5h-61v168h426v-168h-72q-29 0 -38 -17.5t-9 -70.5v-395l424 409q49 49 49 58q0 16 -49 16h-66v168h512v-168h-69q-51 0 -101 -47l-352 -336l450 -577q39 -49 52.5 -58.5t52.5 -9.5h74v-168h-494v168h76 q43 0 43 16q0 2 -53 74l-330 436l-219 -211v-225q0 -55 10 -72.5t45 -17.5h61v-168h-426z" glyph-name="K" horiz-adv-x="1361" unicode="K"/><glyph d="M66 172h61q23 0 45 16q2 6 4 29v877q0 66 -9 85t-40 19h-64v166h416v-166h-51q-59 0 -59 -51v-975h471q57 0 57 57v56h168v-285h-999v172z" glyph-name="L" horiz-adv-x="1107" unicode="L"/><glyph d="M57 168h56q39 0 47 12.5t8 73.5v870q0 45 -10.5 58.5t-44.5 13.5h-54v168h334l430 -1061l437 1061h333v-168h-69q-39 0 -39 -61v-881q2 -63 8 -74.5t43 -11.5h57v-168h-415v168h59q35 0 46 16.5t11 61.5v702l-395 -948h-145l-392 948v-721q0 -59 56 -59h57v-168h-418v168 z" glyph-name="M" horiz-adv-x="1677" unicode="M"/><glyph d="M59 1196v168h312l678 -1036v751q0 86 -7.5 101.5t-46.5 15.5h-59v168h416v-166h-62q-53 0 -53 -63v-1135h-188l-689 1044v-796q0 -47 9.5 -62.5t42.5 -15.5h63v-170h-414v170h58q33 0 45 13.5t12 47.5v848q0 84 -8 100.5t-49 16.5h-60z" glyph-name="N" horiz-adv-x="1413" unicode="N"/><glyph d="M719 1229q-225 0 -354 -193q-107 -164 -107 -380t132 -376.5t331 -160.5t332 155.5t133 412.5t-160 421q-117 121 -307 121zM724 1391q337 0 519 -244q152 -201 152 -469q0 -156 -54.5 -299t-146.5 -236q-186 -182 -475 -182q-135 0 -260 48t-205 130q-195 205 -195 537 q0 281 146 473q182 242 519 242z" glyph-name="O" horiz-adv-x="1452" unicode="O"/><glyph d="M367 555v-274q0 -80 9 -96.5t50 -16.5h57v-168h-420v168h58q37 0 47 16.5t10 69.5v887q0 53 -59 53h-58v170h396q389 0 454 -16q131 -33 210 -139.5t79 -268.5t-109.5 -273.5t-283.5 -111.5h-440zM367 1192v-479h378q260 0 261 231q0 117 -75 182.5t-208 65.5h-356z" glyph-name="P" horiz-adv-x="1286" unicode="P"/><glyph d="M1184 657q0 250 -130 409t-335 159t-330 -149.5t-125 -390.5t124 -400.5t308 -159.5q59 0 189 25l-154 122l96 125l199 -157q88 106 123 198t35 219zM1425 166v-166h-335l-54 29q-168 -66 -317 -66q-240 0 -412 137q-246 190 -246 582q0 317 179.5 512t474.5 195 t482 -196t187 -505q0 -119 -31 -241.5t-63 -171.5t-43.5 -68t-17.5 -29t-8 -12h204z" glyph-name="Q" horiz-adv-x="1454" unicode="Q"/><glyph d="M369 1196v-471h374q137 0 210 62.5t73 175.5t-62.5 173t-172.5 60h-422zM59 1196v168h748q182 0 301 -105.5t119 -269.5q0 -129 -52.5 -205.5t-179.5 -140.5q88 -39 118 -72.5t40 -107.5l29 -215q10 -78 45 -78h78v-170h-172q-88 0 -117 29.5t-31 124.5q0 231 -52 322 t-183 91h-381v-309q0 -57 10 -72.5t49 -15.5h57v-170h-426v170h76q29 0 35 17.5t6 103.5v839q0 66 -53 66h-64z" glyph-name="R" horiz-adv-x="1329" unicode="R"/><glyph d="M53 0v467h193q35 -178 98 -242q109 -104 285 -104q137 0 227 69.5t90 165.5t-56 147.5t-183 86.5l-248 67q-176 47 -257 137t-81 224q0 94 46 177t118 124q125 68 321 67q94 0 165 -23.5t165 -86.5v88h172v-420h-182q-27 129 -78 184q-80 90 -270 91q-127 0 -196 -49.5 t-69 -139.5q0 -147 238 -207l188 -47q197 -47 287 -123q53 -47 85 -122.5t32 -157.5q0 -186 -136.5 -300t-357.5 -114q-115 0 -212 27t-218 127v-113h-166z" glyph-name="S" horiz-adv-x="1218" unicode="S"/><glyph d="M45 1079v289h1051v-287h-172v64q0 31 -13.5 41t-54.5 10h-184v-950q0 -53 5 -65.5t32 -12.5h73v-168h-422v168h66q27 0 36 16.5t9 69.5v942h-205q-51 0 -51 -51v-66h-170z" glyph-name="T" horiz-adv-x="1140" unicode="T"/><glyph d="M45 1364h422v-166h-59q-49 0 -50 -65v-633q0 -162 33 -228q33 -61 114 -98t185 -37q152 0 230.5 77t78.5 222v662q0 63 -10 80.5t-47 17.5h-55v168h422v-166h-60q-53 0 -53 -80v-692q0 -217 -135 -337t-381 -120q-305 0 -434 170q-86 115 -86 318v663q0 43 -14.5 59.5 t-49.5 16.5h-51v168z" glyph-name="U" horiz-adv-x="1376" unicode="U"/><glyph d="M14 1364h428v-168h-59q-45 0 -45 -27q0 -18 12 -53l305 -895l299 895q12 35 13 53q0 27 -39 27h-70v168h430v-168h-71q-29 0 -39.5 -12.5t-28.5 -67.5l-389 -1116h-209l-397 1130q-16 41 -32 54.5t-54 11.5h-54v168z" glyph-name="V" horiz-adv-x="1308" unicode="V"/><glyph d="M18 1194v170h416v-168h-51q-57 0 -57 -35q0 -16 14 -71l213 -793l272 1067h199l281 -1067l204 793q17 72 17 82q1 21 -56 22h-51v170h418v-168h-59q-37 0 -49.5 -11t-24.5 -57l-297 -1128h-199l-280 1069l-275 -1069h-194l-314 1139q-8 35 -18 45t-35 10h-74z" glyph-name="W" horiz-adv-x="1851" unicode="W"/><glyph d="M25 168h88q25 0 42 14.5t48 59.5l299 450l-322 459q-25 35 -37 41t-55 6h-61v166h471v-168h-90q-23 0 -23 -14t23 -47l198 -289l199 289q20 29 20 43q0 20 -37 20h-71v166h459v-166h-70q-29 0 -46.5 -11t-39.5 -44l-303 -445l344 -516q10 -14 67 -14h70v-168h-465v168h88 q44 0 -10 78l-205 291l-180 -273q-41 -61 -41 -74q0 -23 29 -22h82v-168h-471v168z" glyph-name="X" horiz-adv-x="1234" unicode="X"/><glyph d="M18 1196v168h447v-168h-70q-43 0 -43 -25q0 -8 17 -34l237 -381l230 379q20 35 20 41q0 20 -39 20h-65v168h436v-168h-51q-39 0 -55.5 -11t-45.5 -59l-334 -544v-359q0 -33 10.5 -44t39.5 -11h65v-168h-420v168h70q23 0 32 13.5t9 45.5v355l-350 565q-31 49 -66 49h-74z " glyph-name="Y" horiz-adv-x="1210" unicode="Y"/><glyph d="M29 0v170l796 1026h-536q-29 0 -38 -14.5t-9 -53.5v-49h-168v285h985v-158l-807 -1040h627q57 0 57 65v48h166v-279h-1073z" glyph-name="Z" horiz-adv-x="1153" unicode="Z"/><glyph d="M555 1364v-135h-217v-1440h217v-135h-377v1710h377z" glyph-name="bracketleft" horiz-adv-x="593" unicode="["/><glyph d="M614 -78h-114l-432 1442h114z" glyph-name="backslash" horiz-adv-x="681" unicode="\"/><glyph d="M418 1364v-1710h-377v135h219v1440h-219v135h377z" glyph-name="bracketright" horiz-adv-x="593" unicode="]"/><glyph d="M190 774h-149l393 590h156l393 -590h-149l-324 471z" glyph-name="asciicircum" horiz-adv-x="1024" unicode="^"/><glyph d="M1024 -154v-153h-1024v153h1024z" glyph-name="underscore" horiz-adv-x="1024" unicode="_"/><glyph d="M68 1368h243l148 -287h-144z" glyph-name="grave" horiz-adv-x="526" unicode="`"/><glyph d="M233 265q0 -73 60.5 -122t166.5 -49t184.5 78t78.5 197v135l-246 -60q-143 -35 -193.5 -70.5t-50.5 -108.5zM102 659q0 139 33 197q90 162 369 162q190 0 289.5 -70.5t99.5 -204.5v-550q0 -31 12.5 -41.5t46.5 -10.5h58v-141h-162q-45 0 -65.5 21.5t-43.5 91.5 q-102 -84 -176 -115t-172 -31q-152 0 -245 79t-93 206q0 238 295 299l264 53q68 14 95.5 40t27.5 86t-60.5 102t-180.5 42t-174 -46t-56 -169h-162z" glyph-name="a" horiz-adv-x="1062" unicode="a"/><glyph d="M618 860q-128 0 -210 -100.5t-82 -259.5q0 -211 106 -305q82 -72 199 -72t183.5 92t66.5 269t-67.5 276.5t-195.5 99.5zM53 135h53q35 0 48.5 14.5t13.5 51.5v962q0 55 -47 56h-66v139h301v-494q37 37 74 70q94 78 219 78q184 0 305 -146t121 -378t-117.5 -374.5 t-314.5 -142.5q-106 0 -169.5 34t-133.5 130v-135h-287v135z" glyph-name="b" horiz-adv-x="1128" unicode="b"/><glyph d="M831 983h142v-324h-170q-41 102 -103.5 150.5t-156.5 48.5q-139 0 -216 -100t-77 -262t39 -234t106.5 -108.5t157.5 -36.5t146.5 54t82.5 179h191q-10 -90 -30.5 -141t-63.5 -103q-121 -141 -340 -141t-353.5 140.5t-134.5 376.5t134 383t352 147q90 0 153.5 -25.5 t140.5 -93.5v90z" glyph-name="c" horiz-adv-x="1044" unicode="c"/><glyph d="M520 858q-123 0 -195.5 -100t-72.5 -270t71.5 -271.5t196.5 -101.5t208 104.5t83 254.5t-45 241q-33 63 -102.5 103t-143.5 40zM784 1176q0 45 -55 45h-61v143h305v-1149q0 -47 9 -61.5t38 -14.5h63v-139h-286v123q-145 -160 -321 -160t-298.5 150.5t-122.5 376.5 t123 376t311 150q90 0 155.5 -32t139.5 -114v306z" glyph-name="d" horiz-adv-x="1132" unicode="d"/><glyph d="M508 868q-137 0 -213 -108q-39 -57 -62 -180h555q-26 108 -56 164t-92 90t-132 34zM541 109q86 0 141 43t100 143h181q-47 -145 -117 -217q-113 -119 -324 -119t-341 142.5t-130 380.5t127 383t336 145q141 0 253 -73t161 -187t55 -316h-741q16 -131 48 -192t98.5 -97 t152.5 -36z" glyph-name="e" horiz-adv-x="1034" unicode="e"/><glyph d="M37 840v149h127v197q0 106 53 153q29 25 80 40.5t86 6.5h141v-151h-71q-59 0 -81 -22.5t-22 -86.5v-135h174v-149h-174v-631q0 -53 8 -59q16 -10 39 -11h70v-141h-418v141h60q35 0 45 13.5t10 54.5v631h-127z" glyph-name="f" horiz-adv-x="555" unicode="f"/><glyph d="M522 862q-88 0 -137 -24.5t-88 -89.5q-59 -108 -59 -244t84 -250q61 -88 199 -88t214 90t76 255t-76 258t-213 93zM795 987h282v-147h-49q-35 0 -49 -11.5t-14 -40.5v-667q0 -150 -28.5 -307.5t-422.5 -157.5q-279 0 -367 145q-25 41 -45 138h191q16 -76 61 -104t173 -28 t187.5 44.5t59.5 156.5v142q-94 -84 -150.5 -112t-138.5 -28q-180 0 -307 148t-127 350t113 357t321 155q100 0 169 -35t141 -123v125z" glyph-name="g" horiz-adv-x="1128" unicode="g"/><glyph d="M47 1221v143h303v-502q80 86 148.5 118t171.5 32q369 0 368 -353v-466q0 -37 5.5 -44.5t33.5 -7.5h74v-141h-410v141h66q29 0 37 13.5t8 58.5v463q0 82 -67 137t-173 55t-184 -78.5t-78 -195.5v-399q0 -35 9.5 -44.5t43.5 -9.5h58v-141h-414v141h62q33 0 44 12.5t11 47.5 v983q0 37 -55 37h-62z" glyph-name="h" horiz-adv-x="1200" unicode="h"/><glyph d="M166 1155v209h196v-209h-196zM53 0v139h74q23 0 31 13.5t8 48.5v590q0 29 -9.5 37t-41.5 8h-60v147h301v-782q0 -39 6.5 -50.5t28.5 -11.5h78v-139h-416z" glyph-name="i" horiz-adv-x="524" unicode="i"/><glyph d="M166 1157v207h196v-207h-196zM-10 -334v152h98q8 -4 26.5 1t28.5 15q23 25 23 117v833q0 35 -11.5 45.5t-48.5 10.5h-51v143h307v-1022q0 -176 -55 -235.5t-219 -59.5h-98z" glyph-name="j" horiz-adv-x="499" unicode="j"/><glyph d="M49 1219v145h297v-766l213 197q25 25 25 37t-43 12h-60v145h488v-145h-86q-27 0 -60 -31l-192 -172l303 -463q25 -37 65 -37h82v-141h-460v141h75q39 0 39 19q0 12 -16 37l-219 329l-154 -141v-186q0 -57 49 -58h64v-141h-408v141h68q29 0 38 15.5t9 64.5v942 q0 55 -64 56h-53z" glyph-name="k" horiz-adv-x="1105" unicode="k"/><glyph d="M53 0v141h68q29 0 38 14.5t9 61.5v946q0 55 -59 56h-54v139h303v-1151q0 -47 5.5 -56.5t29.5 -9.5h72v-141h-412z" glyph-name="l" horiz-adv-x="524" unicode="l"/><glyph d="M756 641q0 221 -188 221q-96 0 -159 -82t-63 -221v-369q0 -33 7 -42t36 -9h68v-139h-404v139h51q63 0 64 54v587q0 37 -11.5 50.5t-41.5 13.5h-62v143h289v-131q102 160 287 160q125 0 205 -76q35 -31 86 -115q72 106 134 146.5t153 40.5t169 -41t116 -109t38 -192v-477 q0 -31 10 -42.5t37 -11.5h61v-139h-401v139h55q33 0 46.5 16.5t13.5 57.5v434q0 100 -49.5 157.5t-140.5 57.5t-157.5 -91t-66.5 -224v-344q0 -39 10 -51.5t43 -12.5h62v-139h-404v139h56q29 0 40 16.5t11 57.5v428z" glyph-name="m" horiz-adv-x="1701" unicode="m"/><glyph d="M76 0v141h55q59 0 59 62v536q0 61 -2 72.5t-18 20.5t-39 10h-53v141h295v-125q80 88 150.5 120t178.5 32q172 0 264.5 -87t92.5 -251v-469q0 -43 8 -52.5t47 -9.5h57v-141h-407v141h65q27 0 35 14.5t8 59.5v453q0 86 -61 142t-147 56t-154 -36.5t-100 -94.5 q-14 -27 -31 -120t-11 -102t5 -13v-297q0 -35 10 -48.5t37 -13.5h63v-141h-407z" glyph-name="n" horiz-adv-x="1224" unicode="n"/><glyph d="M546 860q-138 0 -222 -102.5t-84 -269.5t86 -270t225 -103t223 100t84 267t-87 272.5t-225 105.5zM537 1012q224 0 370 -145t146 -377t-140.5 -380.5t-359.5 -148.5t-359.5 144.5t-140.5 378.5t130 381t354 147z" glyph-name="o" horiz-adv-x="1103" unicode="o"/><glyph d="M614 858q-131 0 -214 -102t-83 -268t81 -271.5t203 -105.5t196 84q39 41 62.5 127t23.5 178q0 174 -69 266t-200 92zM49 -332v142h64q53 0 53 65v901q0 66 -55 66h-62v141h295v-135q70 94 135.5 130t167.5 36q190 0 309 -144.5t119 -375.5q0 -295 -176 -439 q-113 -94 -264 -94q-84 0 -147.5 31t-143.5 110v-231q0 -61 51 -61h62v-142h-408z" glyph-name="p" horiz-adv-x="1128" unicode="p"/><glyph d="M515 862q-128 0 -201.5 -98t-73.5 -271t74.5 -275.5t199.5 -102.5t208 107.5t83 271t-81 266t-209 102.5zM791 983h288v-145h-73q-43 0 -43 -62v-911q0 -37 7 -45t42 -8h57v-144h-295v434q-76 -80 -137.5 -107.5t-159.5 -27.5q-190 0 -310 143.5t-120 359.5t115 379 t309 163q152 0 240 -76q31 -27 80 -98v145z" glyph-name="q" horiz-adv-x="1126" unicode="q"/><glyph d="M53 0v137h47q37 0 52.5 18.5t15.5 63.5v565q0 33 -13.5 45.5t-48.5 12.5h-53v141h295v-166q70 113 126 152t149 39q35 0 55 -2v-179q-53 6 -92 7q-106 0 -172 -78t-66 -205v-361q0 -23 13.5 -39t33.5 -16h64v-135h-406z" glyph-name="r" horiz-adv-x="714" unicode="r"/><glyph d="M49 0v324h182q23 -125 77 -171.5t174 -46.5t186.5 42t66.5 108t-43 97q-43 32 -234 75t-283.5 108.5t-92.5 188.5t103.5 206t271.5 83q90 0 144 -17.5t134 -72.5v59h139v-299h-167q-29 111 -75 149.5t-151 38.5q-223 0 -223 -131q0 -94 174 -131q225 -49 340 -102 q146 -68 146 -224t-119 -237.5t-324 -81.5q-98 0 -162.5 21.5t-130.5 79.5v-66h-133z" glyph-name="s" horiz-adv-x="978" unicode="s"/><glyph d="M-2 842v147h149v309h187v-309h182v-147h-180v-592q0 -59 17.5 -83t62.5 -24h100v-143h-162q-109 0 -158 50t-49 161v631h-149z" glyph-name="t" horiz-adv-x="571" unicode="t"/><glyph d="M35 844v143h303v-676q0 -92 57.5 -146t145.5 -54t152.5 34.5t101.5 102.5t36 217v332q0 47 -59 47h-51v143h301v-792q0 -35 9 -45.5t42 -10.5h51v-139h-295v113q-143 -150 -325 -150q-119 0 -207 46t-119 124t-31 176v486q0 29 -13 39t-48 10h-51z" glyph-name="u" horiz-adv-x="1189" unicode="u"/><glyph d="M20 838v145h408v-143h-66q-35 0 -34 -27q0 -10 6 -25l201 -552l192 569q0 25 -6 29t-41 4h-51v145h409v-143h-57q-59 0 -70 -35l-282 -805h-185l-294 805q-14 33 -72 33h-58z" glyph-name="v" horiz-adv-x="1054" unicode="v"/><glyph d="M1212 815q0 20 -32 21h-70v147h410v-147h-66q-33 0 -45 -9.5t-23 -42.5l-243 -784h-189l-186 668l-188 -668h-187l-254 811q-8 25 -57 25h-66v147h408v-147h-70q-33 0 -32 -31v-4l163 -539l191 721h178l199 -721l153 522q6 25 6 31z" glyph-name="w" horiz-adv-x="1538" unicode="w"/><glyph d="M27 0v143h82q39 0 55 23l266 362l-211 275q-27 35 -65 35h-84v145h413v-143h-51q-8 0 -18.5 -13t2.5 -26l106 -154l94 152l2 6l5 4q8 16 8 18q0 10 -39 11h-37v145h414v-143h-80q-45 0 -60 -21l-213 -280l285 -373q10 -14 23.5 -18.5t56.5 -4.5h57v-143h-444v143h53 q41 0 41 21q0 16 -12 31l-154 217l-137 -217l-14 -25l-6 -12q0 -14 20 -15h80v-143h-438z" glyph-name="x" horiz-adv-x="1075" unicode="x"/><glyph d="M16 989h410v-149h-64q-39 0 -38 -23v-2l2 -2v-4l200 -584l199 582v6h2v6q0 18 -37 19h-65v151h415v-149h-77q-43 0 -54 -33l-331 -930q-43 -121 -90.5 -164t-137.5 -43h-170v142h125q70 0 96 65l37 96l-297 834q-8 20 -17 25.5t-38 5.5h-70v151z" glyph-name="y" horiz-adv-x="1054" unicode="y"/><glyph d="M37 0v123l541 706h-318q-45 0 -45 -47v-75h-147v280h768v-104l-562 -727h398q33 0 46 12t13 43v70h143v-281h-837z" glyph-name="z" horiz-adv-x="931" unicode="z"/><glyph d="M350 1077v-327q0 -102 -24.5 -150.5t-100.5 -91.5q72 -43 98.5 -94.5t26.5 -151.5v-317q0 -127 32 -164t140 -37h25v-119h-8l-13 -2h-30q-160 0 -227.5 68.5t-67.5 232.5v334q0 90 -24.5 130t-92.5 61v118q68 20 92.5 60.5t24.5 132.5v354q0 147 68.5 215t217.5 68 q35 0 60 -2v-117h-25q-104 0 -138 -40t-34 -161z" glyph-name="braceleft" horiz-adv-x="593" unicode="{"/><glyph d="M446 1364h129v-1718h-129v1718z" glyph-name="bar" horiz-adv-x="1024" unicode="|"/><glyph d="M244 -57v327q0 102 24.5 149.5t100.5 90.5q-74 43 -99.5 93t-25.5 151v319q0 129 -32 166t-140 37h-27v119h8l13 2h32q158 0 226.5 -70t68.5 -231v-334q0 -94 24.5 -134t92.5 -59v-118q-68 -20 -92.5 -60.5t-24.5 -132.5v-352q0 -145 -68.5 -214t-215.5 -69q-35 0 -56 2 h-8v119h27q109 0 140.5 37t31.5 162z" glyph-name="braceright" horiz-adv-x="593" unicode="}"/><glyph d="M744 1110q-70 0 -240 76l-92 41q-80 37 -130 37t-91 -39t-105 -146l-80 80q82 131 142.5 182.5t131.5 51.5t263 -84l98 -43q61 -27 104 -27q88 0 189 184l80 -77q-78 -133 -139 -184.5t-131 -51.5z" glyph-name="asciitilde" horiz-adv-x="1021" unicode="~"/><glyph d="M96 829v207h199v-207h-199zM96 -326v404q0 86 12 179t13 101l18 222l15 141h84q25 -254 41 -436l4 -39q8 -90 8 -105v-467h-195z" glyph-name="exclamdown" horiz-adv-x="499" unicode="¡"/><glyph d="M283 696q0 -100 36.5 -184t92.5 -123t141 -59v735q-84 -14 -119 -39q-68 -45 -109.5 -137.5t-41.5 -192.5zM555 1364h109v-123q188 -14 303.5 -118.5t138.5 -274.5h-205q-29 109 -80 155t-162 66v-739q106 8 160.5 55t81.5 154h207q-63 -367 -453 -385v-154h-106v158 q-141 23 -219 67q-115 63 -182.5 190t-67.5 281t72.5 285t197.5 199q68 35 205 59v125z" glyph-name="cent" unicode="¢"/><glyph d="M420 458q0 72 -47 175h-260v127h204q-72 166 -71 266q0 164 108.5 266.5t284.5 102.5q223 0 338 -144q63 -80 86 -268h-197q-20 141 -70.5 200.5t-146.5 59.5t-152.5 -54.5t-56.5 -148.5t82 -280h330v-127h-272q36 -119 36 -177t-16 -97.5t-61 -94.5q186 -98 274 -98 t111.5 48t25.5 194h185q-4 -133 -14.5 -187.5t-39.5 -105.5q-78 -133 -231 -133q-86 0 -184 43l-131 57q-78 33 -126 33t-76 -23.5t-59 -91.5h-180q35 139 83 195.5t161 93.5q82 97 82 169z" glyph-name="sterling" unicode="£"/><glyph d="M683 1073q-138 0 -235.5 -98t-97.5 -235.5t97.5 -235.5t234.5 -98t234.5 98t97.5 236t-96.5 235.5t-234.5 97.5zM195 738q0 150 100 290l-201 201l96 94l199 -199q141 100 292 100t290 -96l196 195l95 -96l-195 -193q104 -138 104 -290t-100 -291l197 -197l-94 -94 l-195 194q-145 -102 -297 -102t-295 102l-197 -194l-94 94l197 197q-98 135 -98 285z" glyph-name="currency" horiz-adv-x="1363" unicode="¤"/><glyph d="M174 1196h-74v168h447v-168h-70q-43 0 -43 -25q0 -8 17 -34l239 -373l228 371q20 35 20 41q0 20 -39 20h-65v168h436v-168h-51q-39 0 -55.5 -11t-45.5 -59l-182 -297h174v-127h-252l-74 -120h326v-127h-326v-232q0 -33 10.5 -44t39.5 -11h65v-168h-420v168h70 q23 0 32 13.5t9 45.5v228h-322v127h322l-74 120h-248v127h168l-196 318q-31 49 -66 49z" glyph-name="yen" unicode="¥"/><glyph d="M575 655h-133v707h133v-707zM442 307h133v-663h-133v663z" glyph-name="brokenbar" horiz-adv-x="1024" unicode="¦"/><glyph d="M201 657q0 -53 52.5 -111t299.5 -188q29 -16 59 -34l62 -37h2q0 -2 4 -2l12 -6q152 55 152 172q0 57 -45 106t-154 113l-102 59l-105 53l-69 39l-23 10q-145 -61 -145 -174zM522 1266q-88 0 -141 -43t-53 -109t39 -104t215 -130t276 -165q139 -100 139 -240 q0 -193 -209 -274q59 -55 84 -102.5t25 -108.5q0 -137 -102.5 -222t-284.5 -85t-287 114q-45 49 -63.5 102.5t-22.5 143.5l2 8h156q10 -121 64.5 -176t154.5 -55t157.5 45t57.5 118t-59.5 128t-261.5 157t-280.5 179t-78.5 196q0 188 207 270q-94 92 -94 207t99 197t271 82 t271 -109q80 -83 90 -243h-156q-20 219 -215 219z" glyph-name="section" horiz-adv-x="1048" unicode="§"/><glyph d="M346 1364v211h174v-211h-174zM68 1364v209h174v-209h-174z" glyph-name="dieresis" horiz-adv-x="587" unicode="¨"/><glyph d="M795 1294h-11q-254 0 -426 -176t-172 -433t178.5 -437t429.5 -180t428 179t177 434t-176 434t-428 179zM791 1395q294 0 504 -206t210 -503t-207.5 -505t-502.5 -208t-503 208t-208 501t206.5 503t500.5 210zM1008 1096h100v-248h-109q-31 68 -49 90q-63 74 -179 74 t-189.5 -89t-73.5 -237t73.5 -243t186.5 -95t180 80q37 45 51 156h121q-16 -152 -80 -222q-102 -113 -270 -112.5t-276.5 122.5t-108.5 314t107.5 308t285.5 116q68 0 116 -17.5t114 -68.5v72z" glyph-name="copyright" horiz-adv-x="1593" unicode="©"/><glyph d="M543 1040v41q-27 -18 -122 -26t-138 -31t-43 -80q0 -102 122 -102q181 -1 181 198zM723 653v-80h-602v80h602zM318 760q-84 0 -141.5 47t-57.5 137t74.5 133t265.5 58q51 4 67.5 15t16.5 44q0 115 -133 115q-72 0 -106 -29t-44 -98h-110q10 109 73.5 160t198.5 51 t194 -64q18 -20 34 -60.5t9 -78.5l-2 -19v-194q6 -129 9.5 -153.5t13.5 -47.5h-121q-11 34 -14 60v18q-63 -59 -103 -76.5t-124 -17.5z" glyph-name="ordfeminine" horiz-adv-x="815" unicode="ª"/><glyph d="M535 813h131l-177 -397l177 -389h-129l-177 389zM264 813h131l-176 -397l176 -389h-129l-178 389z" glyph-name="guillemotleft" horiz-adv-x="712" unicode="«"/><glyph d="M881 0v428h-863v121h986v-549h-123z" glyph-name="logicalnot" horiz-adv-x="1024" unicode="¬"/><glyph d="M139 406v161h469v-161h-469z" glyph-name="uni00AD" horiz-adv-x="747" unicode="­"/><glyph d="M795 1294h-11q-254 0 -426 -176t-172 -433t178.5 -437t429.5 -180t428 179t177 434t-176 434t-428 179zM793 1393q294 0 504 -206t210 -502t-206.5 -504t-503.5 -208t-505 208t-208 500t207.5 502t501.5 210zM608 997v-282h226q170 0 170 147q0 63 -38 99t-104 36h-254z M424 997v99h446q111 0 181.5 -62t70.5 -150t-30.5 -133.5t-108.5 -84.5q53 -23 70.5 -43.5t25.5 -65.5l17 -129q6 -47 26 -47h47v-102h-102q-53 0 -70.5 18.5t-18.5 116.5t-32 152.5t-110 54.5h-228v-187q0 -35 6.5 -44t28.5 -9h35v-102h-254v102h45q18 0 21.5 10t3.5 64 v503q0 39 -33 39h-37z" glyph-name="registered" horiz-adv-x="1593" unicode="®"/><glyph d="M139 1364v162h469v-162h-469z" glyph-name="macron" horiz-adv-x="747" unicode="¯"/><glyph d="M512 1292q-82 0 -140.5 -58t-58.5 -140t57.5 -141.5t139.5 -59.5t140.5 58.5t58.5 141.5t-57.5 141t-139.5 58zM511 1393q128 0 218 -87t90 -212t-90 -213t-217 -88t-217 87t-90 212t89 213t217 88z" glyph-name="degree" horiz-adv-x="1024" unicode="°"/><glyph d="M18 262h986v-133h-986v133zM18 854h426v399h134v-397h426v-135h-424v-373h-134v373h-428v133z" glyph-name="plusminus" horiz-adv-x="1024" unicode="±"/><glyph d="M645 696h-567q2 104 66.5 173t238.5 149q86 43 117.5 75.5t31.5 88.5t-41.5 90.5t-117.5 34.5t-119 -36t-43 -102v-34h-119q2 109 47 163q81 90 221 90t216.5 -58t76.5 -152q0 -133 -166 -209l-110 -51q-137 -61 -162 -130q-2 -6 -4 -10h299q31 0 31 31v29h104v-142z" glyph-name="uni00B2" horiz-adv-x="724" unicode="²"/><glyph d="M358 756q94 0 144.5 35.5t50.5 93.5q0 131 -213 131h-51v76q23 -2 49 -2q84 0 130 29.5t46 78.5t-41 79t-111 30q-158 0 -167 -146h-117q25 227 284 228q121 0 197 -52.5t76 -136.5q0 -104 -135 -143q63 -16 92 -33q82 -49 82 -144t-80 -150.5t-219 -55.5 q-297 -1 -330 241h123q12 -72 41 -100q55 -59 149 -59z" glyph-name="uni00B3" horiz-adv-x="724" unicode="³"/><glyph d="M219 1645h256l-260 -281h-147z" glyph-name="acute" horiz-adv-x="544" unicode="´"/><glyph d="M90 -344v1333h160v-555q0 -125 29 -182q74 -145 225 -146q117 0 189.5 95.5t72.5 249.5v538h162v-989h-160v164q-55 -106 -113.5 -148.5t-149.5 -42.5t-146.5 33t-108.5 117v-467h-160z" glyph-name="uni00B5" horiz-adv-x="1024" unicode="µ"/><glyph d="M494 -197v844l-19 -2h-10q-166 0 -269.5 99.5t-103.5 267.5t117 260t338 92h473v-84h-98v-1477h-109v1477h-207v-1477h-112z" glyph-name="paragraph" horiz-adv-x="1157" unicode="¶"/><glyph d="M373 881q92 0 157.5 -63.5t65.5 -156.5t-62.5 -158t-155.5 -65t-158.5 64.5t-65.5 157t63.5 157t155.5 64.5z" glyph-name="periodcentered" horiz-adv-x="749" unicode="·"/><glyph d="M279 -260q0 53 -111 53h-43l31 223h84l-4 -125q78 -10 113.5 -45.5t35.5 -107.5t-53 -114t-154 -42q-44 1 -110 19l10 96q82 -19 116 -19t59.5 16.5t25.5 45.5z" glyph-name="cedilla" horiz-adv-x="452" unicode="¸"/><glyph d="M147 1196v59q94 10 139.5 39t57.5 88h92v-573q0 -18 7.5 -23.5t29.5 -5.5h57v-84h-307v84h53q27 0 36.5 6.5t9.5 26.5v383h-175z" glyph-name="uni00B9" horiz-adv-x="720" unicode="¹"/><glyph d="M421 1303q-85 0 -135 -60.5t-50 -166.5t49 -166t134 -60t134 59.5t49 162.5t-48 167t-133 64zM727 653v-80h-602v80h602zM420 1393q135 0 218 -86.5t83 -230.5t-83 -230t-219 -86t-219 87t-83 228.5t84 229.5t219 88z" glyph-name="ordmasculine" horiz-adv-x="839" unicode="º"/><glyph d="M487 813l175 -397l-175 -389h-129l174 389l-176 397h131zM215 813l176 -397l-176 -389h-129l176 389l-176 397h129z" glyph-name="guillemotright" horiz-adv-x="747" unicode="»"/><glyph d="M147 1196v59q94 10 139.5 39t57.5 88h92v-573q0 -18 7.5 -23.5t29.5 -5.5h57v-84h-307v84h53q27 0 36.5 6.5t9.5 26.5v383h-175zM1274 1346l-799 -1346h-110l800 1346h109zM1309 242v284l-260 -284h260zM932 164v82l399 440h92v-444h129v-76h-129v-62q0 -18 23 -18h47 v-86h-254v86h37q33 0 33 25v53h-377z" glyph-name="onequarter" horiz-adv-x="1638" unicode="¼"/><glyph d="M147 1196v59q94 10 139.5 39t57.5 88h92v-573q0 -18 7.5 -23.5t29.5 -5.5h57v-84h-307v84h53q27 0 36.5 6.5t9.5 26.5v383h-175zM1272 1346l-799 -1346h-111l801 1346h109zM1559 0h-568q2 104 66.5 173t238.5 149q86 43 118 75.5t32 87.5t-42 90t-118 35t-119 -35.5 t-43 -101.5v-35h-118q2 109 47 164q80 90 220 90t217 -58.5t77 -152.5q0 -133 -166 -209l-111 -51q-137 -61 -162 -129q-2 -6 -4 -10h299q31 0 31 31v28h105v-141z" glyph-name="onehalf" horiz-adv-x="1638" unicode="½"/><glyph d="M1327 1346l-799 -1346h-110l801 1346h108zM1362 242v284l-260 -284h260zM985 164v82l399 440h93v-444h129v-76h-129v-62q0 -18 24 -18h47v-86h-256v86h37q33 0 33 25v53h-377zM358 756q94 0 144.5 35.5t50.5 93.5q0 131 -213 131h-51v76q23 -2 49 -2q84 0 130 29.5 t46 78.5t-41 79t-111 30q-158 0 -167 -146h-117q25 227 284 228q121 0 197 -52.5t76 -136.5q0 -104 -135 -143q63 -16 92 -33q82 -49 82 -144t-80 -150.5t-219 -55.5q-297 -1 -330 241h123q12 -72 41 -100q55 -59 149 -59z" glyph-name="threequarters" horiz-adv-x="1650" unicode="¾"/><glyph d="M381 1038h197v-209h-197v209zM573 725v-14q0 -131 -32.5 -213t-120.5 -166l-113 -109q-86 -82 -86 -184t60.5 -156.5t159.5 -54.5t152 34t77 102t32 173h187q-4 -113 -18.5 -171t-47.5 -109q-123 -197 -379 -197q-182 0 -298.5 104.5t-116.5 268.5q0 96 41 173t141 169 q117 102 142.5 154.5t29.5 195.5h190z" glyph-name="questiondown" horiz-adv-x="978" unicode="¿"/><glyph d="M496 1790h243l148 -287h-144zM469 563h438l-223 582zM18 0v170h66q41 0 51 25l363 923q14 41 14 51q0 25 -43 25h-66v170h381l439 -1108q14 -32 21 -52t18.5 -27t44.5 -7h59v-170h-430v170h63q31 0 39.5 4t8.5 16.5t-25 77.5l-57 146h-545l-62 -160q-23 -61 -22 -64 q0 -20 65 -20h50v-170h-433z" glyph-name="Agrave" horiz-adv-x="1386" unicode="À"/><glyph d="M639 1784h256l-260 -281h-148zM469 563h438l-223 582zM18 0v170h66q41 0 51 25l363 923q14 41 14 51q0 25 -43 25h-66v170h381l439 -1108q14 -32 21 -52t18.5 -27t44.5 -7h59v-170h-430v170h63q31 0 39.5 4t8.5 16.5t-25 77.5l-57 146h-545l-62 -160q-23 -61 -22 -64 q0 -20 65 -20h50v-170h-433z" glyph-name="Aacute" horiz-adv-x="1386" unicode="Á"/><glyph d="M393 1503l154 285h293l147 -285h-123l-149 193h-47l-148 -193h-127zM469 563h438l-223 582zM18 0v170h66q41 0 51 25l363 923q14 41 14 51q0 25 -43 25h-66v170h381l439 -1108q14 -32 21 -52t18.5 -27t44.5 -7h59v-170h-430v170h63q31 0 39.5 4t8.5 16.5t-25 77.5 l-57 146h-545l-62 -160q-23 -61 -22 -64q0 -20 65 -20h50v-170h-433z" glyph-name="Acircumflex" horiz-adv-x="1386" unicode="Â"/><glyph d="M555 1745q43 0 131 -35l68 -27q45 -16 64 -16t32.5 14.5t36.5 61.5l100 -39q-43 -117 -76 -159t-91 -42t-142 39t-112 39t-68 -70l-101 37q41 113 78 155t80 42zM469 563h438l-223 582zM18 0v170h66q41 0 51 25l363 923q14 41 14 51q0 25 -43 25h-66v170h381l439 -1108 q14 -32 21 -52t18.5 -27t44.5 -7h59v-170h-430v170h63q31 0 39.5 4t8.5 16.5t-25 77.5l-57 146h-545l-62 -160q-23 -61 -22 -64q0 -20 65 -20h50v-170h-433z" glyph-name="Atilde" horiz-adv-x="1386" unicode="Ã"/><glyph d="M743 1505v209h175v-209h-175zM465 1505v209h174v-209h-174zM469 563h438l-223 582zM18 0v170h66q41 0 51 25l363 923q14 41 14 51q0 25 -43 25h-66v170h381l439 -1108q14 -32 21 -52t18.5 -27t44.5 -7h59v-170h-430v170h63q31 0 39.5 4t8.5 16.5t-25 77.5l-57 146h-545 l-62 -160q-23 -61 -22 -64q0 -20 65 -20h50v-170h-433z" glyph-name="Adieresis" horiz-adv-x="1386" unicode="Ä"/><glyph d="M676 1769q-39 0 -67.5 -26.5t-28.5 -63.5t30.5 -68.5t67.5 -31.5t64.5 28.5t27.5 67.5t-27.5 66.5t-66.5 27.5zM675.5 1845q69.5 0 120 -50t50.5 -119.5t-50.5 -121t-113.5 -51.5t-120.5 58.5t-57.5 122.5t51 112.5t120.5 48.5zM469 563h438l-223 582zM18 0v170h66 q41 0 51 25l363 923q14 41 14 51q0 25 -43 25h-66v170h381l439 -1108q14 -32 21 -52t18.5 -27t44.5 -7h59v-170h-430v170h63q31 0 39.5 4t8.5 16.5t-25 77.5l-57 146h-545l-62 -160q-23 -61 -22 -64q0 -20 65 -20h50v-170h-433z" glyph-name="Aring" horiz-adv-x="1386" unicode="Å"/><glyph d="M909 563v533q0 53 -6 71.5t-26 28.5l-322 -633h354zM1876 1364v-281h-168v70q0 43 -84 43h-522v-401h686v-162h-686v-461h563q59 0 59 49v62h170v-283h-1099v170h61q35 0 44 15.5t9 76.5v154h-426l-82 -162q-27 -53 -27 -63q1 -21 58 -21h47v-170h-454v170h88q43 0 57 25 l492 925q18 35 18 47q0 29 -37 29h-65v168h1298z" glyph-name="AE" horiz-adv-x="1988" unicode="Æ"/><glyph d="M653 -266h-16q-20 0 -29 -2l33 227q-174 27 -279 96q-143 96 -219.5 259t-76.5 366q0 319 179 512.5t474 193.5q115 0 193.5 -29.5t189.5 -113.5v121h166v-412h-178q-53 113 -84 148q-47 57 -125 90t-164 33q-201 0 -324 -147.5t-123 -395.5t122 -404.5t319 -156.5 q106 0 195 51.5t126 123.5t55 216h201q-16 -158 -50 -240t-114 -161q-160 -152 -401 -152v-125q78 -12 112.5 -47t34.5 -98q0 -164 -206 -164q-47 0 -113 18l12 97q72 -18 111 -19q90 0 90 62q0 53 -111 53z" glyph-name="Ccedilla" horiz-adv-x="1359" unicode="Ç"/><glyph d="M61 1194v170h1082v-281h-168v68q0 43 -82 43h-522v-399h686v-162h-686v-461h561q35 0 48 11.5t13 37.5v62h170v-283h-1100v170h62q33 0 43 17.5t10 74.5v834q0 57 -11 77.5t-42 20.5h-64zM416 1790h243l148 -287h-143z" glyph-name="Egrave" horiz-adv-x="1220" unicode="È"/><glyph d="M61 1194v170h1082v-281h-168v68q0 43 -82 43h-522v-399h686v-162h-686v-461h561q35 0 48 11.5t13 37.5v62h170v-283h-1100v170h62q33 0 43 17.5t10 74.5v834q0 57 -11 77.5t-42 20.5h-64zM559 1784h256l-260 -281h-147z" glyph-name="Eacute" horiz-adv-x="1220" unicode="É"/><glyph d="M61 1194v170h1082v-281h-168v68q0 43 -82 43h-522v-399h686v-162h-686v-461h561q35 0 48 11.5t13 37.5v62h170v-283h-1100v170h62q33 0 43 17.5t10 74.5v834q0 57 -11 77.5t-42 20.5h-64zM313 1503l154 285h293l147 -285h-123l-149 193h-47l-148 -193h-127z" glyph-name="Ecircumflex" horiz-adv-x="1220" unicode="Ê"/><glyph d="M61 1194v170h1082v-281h-168v68q0 43 -82 43h-522v-399h686v-162h-686v-461h561q35 0 48 11.5t13 37.5v62h170v-283h-1100v170h62q33 0 43 17.5t10 74.5v834q0 57 -11 77.5t-42 20.5h-64zM664 1505v209h174v-209h-174zM385 1505v209h174v-209h-174z" glyph-name="Edieresis" horiz-adv-x="1220" unicode="Ë"/><glyph d="M61 1194v170h422v-170h-55q-61 0 -61 -47v-866q0 -80 9 -96.5t50 -16.5h57v-168h-420v168h58q37 0 47 16.5t10 69.5v887q0 53 -59 53h-58zM76 1790h243l148 -287h-143z" glyph-name="Igrave" horiz-adv-x="550" unicode="Ì"/><glyph d="M61 1194v170h422v-170h-55q-61 0 -61 -47v-866q0 -80 9 -96.5t50 -16.5h57v-168h-420v168h58q37 0 47 16.5t10 69.5v887q0 53 -59 53h-58zM219 1784h256l-260 -281h-147z" glyph-name="Iacute" horiz-adv-x="550" unicode="Í"/><glyph d="M61 1194v170h422v-170h-55q-61 0 -61 -47v-866q0 -80 9 -96.5t50 -16.5h57v-168h-420v168h58q37 0 47 16.5t10 69.5v887q0 53 -59 53h-58zM-25 1503l154 285h293l147 -285h-123l-149 193h-47l-148 -193h-127z" glyph-name="Icircumflex" horiz-adv-x="550" unicode="Î"/><glyph d="M61 1194v170h422v-170h-55q-61 0 -61 -47v-866q0 -80 9 -96.5t50 -16.5h57v-168h-420v168h58q37 0 47 16.5t10 69.5v887q0 53 -59 53h-58zM326 1505v209h174v-209h-174zM47 1505v209h174v-209h-174z" glyph-name="Idieresis" horiz-adv-x="550" unicode="Ï"/><glyph d="M373 606v-438h291q399 0 399 520q0 246 -96.5 377t-278.5 131h-315v-362h311v-228h-311zM180 834v274q0 55 -10 71.5t-45 16.5h-59v168h593q319 0 474 -211q129 -178 129 -438q0 -356 -179 -557q-61 -70 -168.5 -114t-222.5 -44h-629v168h48q43 0 56 20.5t13 85.5v332 h-117v228h117z" glyph-name="Eth" horiz-adv-x="1327" unicode="Ð"/><glyph d="M568 1745q44 0 130 -35l68 -27q45 -16 64 -16t33 14.5t36 61.5l100 -39q-43 -117 -76.5 -159t-90.5 -42q-58 0 -142 39t-112 39t-68 -70l-100 37q41 113 77.5 155t80.5 42zM59 1196v168h312l678 -1036v751q0 86 -7.5 101.5t-46.5 15.5h-59v168h416v-166h-62 q-53 0 -53 -63v-1135h-188l-689 1044v-796q0 -47 9.5 -62.5t42.5 -15.5h63v-170h-414v170h58q33 0 45 13.5t12 47.5v848q0 84 -8 100.5t-49 16.5h-60z" glyph-name="Ntilde" horiz-adv-x="1413" unicode="Ñ"/><glyph d="M733 1229q-137 0 -235 -60q-104 -59 -171 -198.5t-67 -296.5q0 -236 132 -395.5t332 -159.5t331 155.5t131 399.5t-126 399.5t-327 155.5zM721 1391q303 0 486.5 -196.5t183.5 -518.5t-183.5 -518.5t-484.5 -196.5t-481.5 192.5t-180.5 519.5t178.5 522.5t481.5 195.5z M530 1815h244l148 -287h-144z" glyph-name="Ograve" horiz-adv-x="1452" unicode="Ò"/><glyph d="M733 1229q-137 0 -235 -60q-104 -59 -171 -198.5t-67 -296.5q0 -236 132 -395.5t332 -159.5t331 155.5t131 399.5t-126 399.5t-327 155.5zM721 1391q303 0 486.5 -196.5t183.5 -518.5t-183.5 -518.5t-484.5 -196.5t-481.5 192.5t-180.5 519.5t178.5 522.5t481.5 195.5z M672 1808h256l-260 -280h-148z" glyph-name="Oacute" horiz-adv-x="1452" unicode="Ó"/><glyph d="M733 1229q-137 0 -235 -60q-104 -59 -171 -198.5t-67 -296.5q0 -236 132 -395.5t332 -159.5t331 155.5t131 399.5t-126 399.5t-327 155.5zM721 1391q303 0 486.5 -196.5t183.5 -518.5t-183.5 -518.5t-484.5 -196.5t-481.5 192.5t-180.5 519.5t178.5 522.5t481.5 195.5z M428 1528l154 284h292l148 -284h-123l-149 192h-48l-147 -192h-127z" glyph-name="Ocircumflex" horiz-adv-x="1452" unicode="Ô"/><glyph d="M733 1229q-137 0 -235 -60q-104 -59 -171 -198.5t-67 -296.5q0 -236 132 -395.5t332 -159.5t331 155.5t131 399.5t-126 399.5t-327 155.5zM721 1391q303 0 486.5 -196.5t183.5 -518.5t-183.5 -518.5t-484.5 -196.5t-481.5 192.5t-180.5 519.5t178.5 522.5t481.5 195.5z M589 1769q44 0 130 -34l67 -27q44 -16 64 -16t33.5 14t36.5 61l100 -38q-43 -117 -77 -159t-91 -42t-141 39t-113 39t-68 -70l-100 37q41 113 78 154.5t81 41.5z" glyph-name="Otilde" horiz-adv-x="1452" unicode="Õ"/><glyph d="M733 1229q-137 0 -235 -60q-104 -59 -171 -198.5t-67 -296.5q0 -236 132 -395.5t332 -159.5t331 155.5t131 399.5t-126 399.5t-327 155.5zM721 1391q303 0 486.5 -196.5t183.5 -518.5t-183.5 -518.5t-484.5 -196.5t-481.5 192.5t-180.5 519.5t178.5 522.5t481.5 195.5z M776 1530v209h174v-209h-174zM498 1530v209h174v-209h-174z" glyph-name="Odieresis" horiz-adv-x="1452" unicode="Ö"/><glyph d="M209 1096l301 -303l283 282l94 -94l-283 -283l301 -301l-94 -94l-299 301l-283 -282l-94 94l283 282l-303 303z" glyph-name="multiply" horiz-adv-x="1024" unicode="×"/><glyph d="M731 117q197 0 326 156.5t129 408.5t-160 424l-532 -924l2 -2q115 -63 235 -63zM745 1223q-268 0 -393 -211q-90 -150 -90 -338q0 -136 39 -236t125 -205l535 926q-96 64 -216 64zM1391 672q0 -322 -183.5 -518.5t-484.5 -196.5q-164 0 -320 70l-96 -164l-71 41l96 166 q-92 78 -134 134t-79 142q-59 154 -60 324q0 324 182.5 520t481.5 196q158 1 326 -75l86 147l71 -41l-86 -149q100 -80 156 -164q115 -190 115 -432z" glyph-name="Oslash" horiz-adv-x="1452" unicode="Ø"/><glyph d="M481 1788h244l147 -287h-143zM45 1364h422v-166h-59q-49 0 -50 -65v-633q0 -162 33 -228q33 -61 114 -98t185 -37q152 0 230.5 77t78.5 222v662q0 63 -10 80.5t-47 17.5h-55v168h422v-166h-60q-53 0 -53 -80v-692q0 -217 -135 -337t-381 -120q-305 0 -434 170 q-86 115 -86 318v663q0 43 -14.5 59.5t-49.5 16.5h-51v168z" glyph-name="Ugrave" horiz-adv-x="1376" unicode="Ù"/><glyph d="M623 1782h256l-261 -281h-147zM45 1364h422v-166h-59q-49 0 -50 -65v-633q0 -162 33 -228q33 -61 114 -98t185 -37q152 0 230.5 77t78.5 222v662q0 63 -10 80.5t-47 17.5h-55v168h422v-166h-60q-53 0 -53 -80v-692q0 -217 -135 -337t-381 -120q-305 0 -434 170 q-86 115 -86 318v663q0 43 -14.5 59.5t-49.5 16.5h-51v168z" glyph-name="Uacute" horiz-adv-x="1376" unicode="Ú"/><glyph d="M379 1501l153 285h293l148 -285h-123l-150 193h-47l-147 -193h-127zM45 1364h422v-166h-59q-49 0 -50 -65v-633q0 -162 33 -228q33 -61 114 -98t185 -37q152 0 230.5 77t78.5 222v662q0 63 -10 80.5t-47 17.5h-55v168h422v-166h-60q-53 0 -53 -80v-692q0 -217 -135 -337 t-381 -120q-305 0 -434 170q-86 115 -86 318v663q0 43 -14.5 59.5t-49.5 16.5h-51v168z" glyph-name="Ucircumflex" horiz-adv-x="1376" unicode="Û"/><glyph d="M729 1503v209h174v-209h-174zM451 1503v209h174v-209h-174zM45 1364h422v-166h-59q-49 0 -50 -65v-633q0 -162 33 -228q33 -61 114 -98t185 -37q152 0 230.5 77t78.5 222v662q0 63 -10 80.5t-47 17.5h-55v168h422v-166h-60q-53 0 -53 -80v-692q0 -217 -135 -337 t-381 -120q-305 0 -434 170q-86 115 -86 318v663q0 43 -14.5 59.5t-49.5 16.5h-51v168z" glyph-name="Udieresis" horiz-adv-x="1376" unicode="Ü"/><glyph d="M18 1196v168h447v-168h-70q-43 0 -43 -25q0 -8 17 -34l237 -381l230 379q20 35 20 41q0 20 -39 20h-65v168h436v-168h-51q-39 0 -55.5 -11t-45.5 -59l-334 -544v-359q0 -33 10.5 -44t39.5 -11h65v-168h-420v168h70q23 0 32 13.5t9 45.5v355l-350 565q-31 49 -66 49h-74z M553 1786h256l-260 -281h-148z" glyph-name="Yacute" horiz-adv-x="1210" unicode="Ý"/><glyph d="M367 324v-43q0 -80 9 -96.5t50 -16.5h57v-168h-420v168h58q37 0 47 16.5t10 69.5v889q0 51 -59 51h-58v170h422v-170h-55q-61 0 -61 -45v-14h90q57 2 199 2t232 -16.5t160 -67.5t111 -139.5t41 -188.5q0 -178 -109.5 -289.5t-283.5 -111.5h-440zM367 963v-482h378 q260 0 261 234q0 117 -75 182.5t-208 65.5h-356z" glyph-name="Thorn" horiz-adv-x="1286" unicode="Þ"/><glyph d="M41 139h57q33 0 45.5 11.5t12.5 39.5v883q0 147 89 229t245 82t257 -70.5t101 -176.5q0 -78 -64 -154q-12 -14 -94 -86q-58 -58 21 -119l143 -114q82 -66 129 -153t47 -173q0 -158 -122 -262.5t-302 -104.5q-74 0 -176 29v154q106 -35 192 -35t150 57t64 154 q0 135 -138 260l-120 110q-78 72 -78 121t60 123t82 111t22 81t-45.5 77.5t-110.5 33.5q-98 0 -137 -65q-29 -41 -29 -160v-1022h-301v139z" glyph-name="germandbls" horiz-adv-x="1083" unicode="ß"/><glyph d="M340 1442h244l147 -287h-143zM233 265q0 -73 60.5 -122t166.5 -49t184.5 78t78.5 197v135l-246 -60q-143 -35 -193.5 -70.5t-50.5 -108.5zM102 659q0 139 33 197q90 162 369 162q190 0 289.5 -70.5t99.5 -204.5v-550q0 -31 12.5 -41.5t46.5 -10.5h58v-141h-162 q-45 0 -65.5 21.5t-43.5 91.5q-102 -84 -176 -115t-172 -31q-152 0 -245 79t-93 206q0 238 295 299l264 53q68 14 95.5 40t27.5 86t-60.5 102t-180.5 42t-174 -46t-56 -169h-162z" glyph-name="agrave" horiz-adv-x="1062" unicode="à"/><glyph d="M483 1436h256l-260 -281h-147zM233 265q0 -73 60.5 -122t166.5 -49t184.5 78t78.5 197v135l-246 -60q-143 -35 -193.5 -70.5t-50.5 -108.5zM102 659q0 139 33 197q90 162 369 162q190 0 289.5 -70.5t99.5 -204.5v-550q0 -31 12.5 -41.5t46.5 -10.5h58v-141h-162 q-45 0 -65.5 21.5t-43.5 91.5q-102 -84 -176 -115t-172 -31q-152 0 -245 79t-93 206q0 238 295 299l264 53q68 14 95.5 40t27.5 86t-60.5 102t-180.5 42t-174 -46t-56 -169h-162z" glyph-name="aacute" horiz-adv-x="1062" unicode="á"/><glyph d="M240 1155l153 285h293l148 -285h-123l-150 193h-47l-147 -193h-127zM233 265q0 -73 60.5 -122t166.5 -49t184.5 78t78.5 197v135l-246 -60q-143 -35 -193.5 -70.5t-50.5 -108.5zM102 659q0 139 33 197q90 162 369 162q190 0 289.5 -70.5t99.5 -204.5v-550 q0 -31 12.5 -41.5t46.5 -10.5h58v-141h-162q-45 0 -65.5 21.5t-43.5 91.5q-102 -84 -176 -115t-172 -31q-152 0 -245 79t-93 206q0 238 295 299l264 53q68 14 95.5 40t27.5 86t-60.5 102t-180.5 42t-174 -46t-56 -169h-162z" glyph-name="acircumflex" horiz-adv-x="1062" unicode="â"/><glyph d="M400 1397q44 0 130 -35l68 -27q44 -16 64 -16t33.5 14.5t35.5 61.5l100 -39q-43 -117 -76.5 -159t-90.5 -42t-141 39t-113 39t-68 -70l-100 37q41 113 77.5 155t80.5 42zM233 265q0 -73 60.5 -122t166.5 -49t184.5 78t78.5 197v135l-246 -60q-143 -35 -193.5 -70.5 t-50.5 -108.5zM102 659q0 139 33 197q90 162 369 162q190 0 289.5 -70.5t99.5 -204.5v-550q0 -31 12.5 -41.5t46.5 -10.5h58v-141h-162q-45 0 -65.5 21.5t-43.5 91.5q-102 -84 -176 -115t-172 -31q-152 0 -245 79t-93 206q0 238 295 299l264 53q68 14 95.5 40t27.5 86 t-60.5 102t-180.5 42t-174 -46t-56 -169h-162z" glyph-name="atilde" horiz-adv-x="1062" unicode="ã"/><glyph d="M588 1155v209h174v-209h-174zM309 1155v209h174v-209h-174zM233 263q0 -73 60.5 -122t166.5 -49t184.5 78t78.5 197v135l-246 -60q-143 -35 -193.5 -70.5t-50.5 -108.5zM102 659q0 139 33 197q90 162 369 162q190 0 289.5 -70.5t99.5 -204.5v-550q0 -31 12.5 -41.5 t46.5 -10.5h58v-141h-162q-45 0 -65.5 21.5t-43.5 91.5q-102 -84 -176 -115t-172 -31q-152 0 -245 79t-93 206q0 238 295 299l264 53q68 14 95.5 40t27.5 86t-60.5 102t-180.5 42t-174 -46t-56 -169h-162z" glyph-name="adieresis" horiz-adv-x="1062" unicode="ä"/><glyph d="M536.5 1421q-38.5 0 -67.5 -26.5t-29 -63.5t31 -68.5t67.5 -31.5t64.5 28.5t28 67.5t-28 66.5t-66.5 27.5zM536.5 1497q69.5 0 120 -50t50.5 -120t-50.5 -121t-113.5 -51t-120.5 58.5t-57.5 122.5t51 112.5t120.5 48.5zM233 265q0 -73 60.5 -122t166.5 -49t184.5 78 t78.5 197v135l-246 -60q-143 -35 -193.5 -70.5t-50.5 -108.5zM102 659q0 139 33 197q90 162 369 162q190 0 289.5 -70.5t99.5 -204.5v-550q0 -31 12.5 -41.5t46.5 -10.5h58v-141h-162q-45 0 -65.5 21.5t-43.5 91.5q-102 -84 -176 -115t-172 -31q-152 0 -245 79t-93 206 q0 238 295 299l264 53q68 14 95.5 40t27.5 86t-60.5 102t-180.5 42t-174 -46t-56 -169h-162z" glyph-name="aring" horiz-adv-x="1062" unicode="å"/><glyph d="M1161 868q-119 0 -190 -82q-55 -59 -82 -206h555q-25 104 -43 139q-35 70 -98.5 109.5t-141.5 39.5zM727 369v135q-122 -38 -303 -72q-186 -41 -186 -164q0 -76 60 -125t166 -49t184.5 78t78.5 197zM106 659q0 133 27 187q82 172 371 172q250 0 352 -123 q94 70 151.5 92.5t145.5 22.5q313 0 436 -277q41 -98 47 -299h-741q18 -162 74 -229q79 -99 231 -99t238 189h178q-109 -336 -428 -336q-127 0 -213 41t-182 145q-6 -4 -15.5 -10t-77.5 -57q-147 -111 -298 -111q-152 0 -249.5 78t-97.5 205q0 164 148 252q43 23 85 34 t210 44l118 24q125 27 125 111q0 74 -62.5 116.5t-182.5 42.5t-172 -47t-56 -168h-162z" glyph-name="ae" horiz-adv-x="1705" unicode="æ"/><glyph d="M662 -252q0 -129 -166 -129q-45 0 -88 14l8 78q66 -16 90 -16q70 0 69 49q0 43 -88 43h-34l24 180q-135 20 -217 76q-209 143 -209 440q0 236 134 382.5t352 146.5q90 0 154 -25.5t140 -93.5v90h142v-324h-170q-41 102 -103.5 150.5t-156.5 48.5q-141 0 -217 -100 t-76 -290t90 -273q80 -80 200 -80t185 84q37 51 57 151h191q-23 -186 -131.5 -285.5t-288.5 -99.5h-8v-100q117 -15 117 -117z" glyph-name="ccedilla" horiz-adv-x="1044" unicode="ç"/><glyph d="M322 1434h243l148 -287h-144zM508 868q-137 0 -213 -108q-39 -57 -62 -180h555q-26 108 -56 164t-92 90t-132 34zM541 109q86 0 141 43t100 143h181q-47 -145 -117 -217q-113 -119 -324 -119t-341 142.5t-130 380.5t127 383t336 145q141 0 253 -73t161 -187t55 -316h-741 q16 -131 48 -192t98.5 -97t152.5 -36z" glyph-name="egrave" horiz-adv-x="1034" unicode="è"/><glyph d="M463 1427h256l-260 -280h-148zM508 868q-137 0 -213 -108q-39 -57 -62 -180h555q-26 108 -56 164t-92 90t-132 34zM541 109q86 0 141 43t100 143h181q-47 -145 -117 -217q-113 -119 -324 -119t-341 142.5t-130 380.5t127 383t336 145q141 0 253 -73t161 -187t55 -316 h-741q16 -131 48 -192t98.5 -97t152.5 -36z" glyph-name="eacute" horiz-adv-x="1034" unicode="é"/><glyph d="M219 1147l154 285h293l147 -285h-123l-149 192h-47l-148 -192h-127zM508 868q-137 0 -213 -108q-39 -57 -62 -180h555q-26 108 -56 164t-92 90t-132 34zM541 109q86 0 141 43t100 143h181q-47 -145 -117 -217q-113 -119 -324 -119t-341 142.5t-130 380.5t127 383t336 145 q141 0 253 -73t161 -187t55 -316h-741q16 -131 48 -192t98.5 -97t152.5 -36z" glyph-name="ecircumflex" horiz-adv-x="1034" unicode="ê"/><glyph d="M567 1149v209h174v-209h-174zM289 1149v209h174v-209h-174zM508 868q-137 0 -213 -108q-39 -57 -62 -180h555q-26 108 -56 164t-92 90t-132 34zM541 109q86 0 141 43t100 143h181q-47 -145 -117 -217q-113 -119 -324 -119t-341 142.5t-130 380.5t127 383t336 145 q141 0 253 -73t161 -187t55 -316h-741q16 -131 48 -192t98.5 -97t152.5 -36z" glyph-name="edieresis" horiz-adv-x="1034" unicode="ë"/><glyph d="M53 0v139h74q23 0 31 13.5t8 48.5v590q0 29 -9.5 37t-41.5 8h-60v147h301v-782q0 -39 6.5 -50.5t28.5 -11.5h78v-139h-416zM68 1409h243l148 -287h-144z" glyph-name="igrave" horiz-adv-x="524" unicode="ì"/><glyph d="M53 0v139h74q23 0 31 13.5t8 48.5v590q0 29 -9.5 37t-41.5 8h-60v147h301v-782q0 -39 6.5 -50.5t28.5 -11.5h78v-139h-416zM211 1403h256l-260 -281h-148z" glyph-name="iacute" horiz-adv-x="524" unicode="í"/><glyph d="M53 0v139h74q23 0 31 13.5t8 48.5v590q0 29 -9.5 37t-41.5 8h-60v147h301v-782q0 -39 6.5 -50.5t28.5 -11.5h78v-139h-416zM-35 1122l154 285h293l147 -285h-123l-149 193h-47l-148 -193h-127z" glyph-name="icircumflex" horiz-adv-x="524" unicode="î"/><glyph d="M53 0v139h74q23 0 31 13.5t8 48.5v590q0 29 -9.5 37t-41.5 8h-60v147h301v-782q0 -39 6.5 -50.5t28.5 -11.5h78v-139h-416zM315 1124v209h174v-209h-174zM37 1124v209h174v-209h-174z" glyph-name="idieresis" horiz-adv-x="524" unicode="ï"/><glyph d="M1053 543q0 -190 -70 -327.5t-190 -195.5t-244 -59q-215 0 -355.5 144.5t-140.5 378.5t130 381t345 147q111 0 180.5 -24.5t143.5 -90.5q-37 117 -74 215l-176 -47l-33 123l156 43q-25 53 -92 180h139q63 -94 94 -143l195 51l33 -123l-166 -43q125 -272 125 -610z M546 860q-136 0 -220 -102.5t-84 -269.5t86 -270t223 -103t221 100t84 267t-87 272.5t-223 105.5z" glyph-name="eth" horiz-adv-x="1103" unicode="ð"/><glyph d="M76 0v141h55q59 0 59 62v608q0 10 -19 20.5t-40 10.5h-53v141h295v-125q80 88 150.5 120t178.5 32q172 0 264.5 -87t92.5 -251v-469q0 -43 8 -52.5t47 -9.5h57v-141h-407v141h65q27 0 35 14.5t8 59.5v453q0 86 -61 142t-147 56t-154 -36.5t-100 -94.5q-14 -27 -31 -120 t-11 -102t5 -13v-297q0 -35 10 -48.5t37 -13.5h63v-141h-407zM486 1391q44 0 130 -35l68 -27q44 -16 64 -16t33.5 14t35.5 62l101 -39q-43 -117 -77 -159t-91 -42t-141 39t-113 39t-68 -70l-100 37q41 113 77.5 155t80.5 42z" glyph-name="ntilde" horiz-adv-x="1224" unicode="ñ"/><glyph d="M545 860q-137 0 -221 -101.5t-84 -269t86 -270t226 -102.5t223 99t83 266t-88 272.5t-225 105.5zM540 1012q226 0 369.5 -147t143.5 -377t-139.5 -377.5t-360.5 -147.5t-360.5 141.5t-139.5 379.5t130.5 383t356.5 145zM354 1436h244l147 -287h-143z" glyph-name="ograve" horiz-adv-x="1103" unicode="ò"/><glyph d="M546 860q-138 0 -222 -102.5t-84 -269.5t86 -269t225 -102t223 99t84 267t-87 272.5t-225 104.5zM540 1012q226 0 369.5 -146t143.5 -378t-140.5 -378.5t-360.5 -146.5t-359.5 142.5t-139.5 378.5t130.5 382t356.5 146zM498 1430h256l-260 -281h-148z" glyph-name="oacute" horiz-adv-x="1103" unicode="ó"/><glyph d="M546 860q-138 0 -222 -102.5t-84 -269.5t86 -269t225 -102t223 99t84 266t-87 272.5t-225 105.5zM540 1012q226 0 369.5 -146.5t143.5 -378t-139.5 -378t-360.5 -146.5t-360.5 141.5t-139.5 379.5t130.5 383t356.5 145zM254 1149l154 285h292l148 -285h-123l-150 192h-47 l-147 -192h-127z" glyph-name="ocircumflex" horiz-adv-x="1103" unicode="ô"/><glyph d="M546 860q-138 0 -222 -102.5t-84 -269.5t86 -269t225 -102t223 99t84 267t-87 272.5t-225 104.5zM540 1012q226 0 369.5 -146t143.5 -378t-140.5 -378.5t-360.5 -146.5t-359.5 142.5t-139.5 378.5t130.5 382t356.5 146zM428 1391q27 0 117 -35l67 -27q44 -16 64 -16 t33.5 14t35.5 62l101 -39q-45 -117 -79 -159t-90 -42t-140 39t-113 39t-68 -70l-100 37q39 111 76 154t96 43z" glyph-name="otilde" horiz-adv-x="1103" unicode="õ"/><glyph d="M545 860q-137 0 -221 -102.5t-84 -269.5t86 -269t226 -102t223 99t83 266t-88 272.5t-225 105.5zM540 1012q226 0 369.5 -147t143.5 -377t-139.5 -377.5t-359.5 -147.5t-360.5 141.5t-140.5 379.5t130.5 383t356.5 145zM602 1151v209h174v-209h-174zM324 1151v209h174 v-209h-174z" glyph-name="odieresis" horiz-adv-x="1103" unicode="ö"/><glyph d="M18 766h986v-133h-986v133zM511 424q46 0 78 -32t32 -78t-33 -77.5t-78 -31.5t-77 31.5t-32 76.5t32 78t78 33zM511 1192q46 0 78 -33t32 -78t-33 -76.5t-78 -31.5t-77 31.5t-32 76.5t32 78t78 33z" glyph-name="divide" horiz-adv-x="1024" unicode="÷"/><glyph d="M547 117q141 0 226 101t85 269q0 86 -20.5 147.5t-73.5 129.5l-352 -614q61 -33 135 -33zM541 860q-133 0 -216 -103t-83 -271t104 -285l352 614q-84 45 -157 45zM51 489q0 236 135.5 379.5t354.5 143.5q126 -1 239 -56l72 125l72 -34l-74 -132q203 -154 203 -434 q0 -229 -142.5 -373.5t-367.5 -144.5q-109 0 -213 45l-82 -143l-74 41l84 143q-207 147 -207 440z" glyph-name="oslash" horiz-adv-x="1103" unicode="ø"/><glyph d="M35 844v143h303v-676q0 -94 56.5 -147t156.5 -53q170 0 240 129q41 76 40 225v332q0 47 -59 47h-51v143h301v-792q0 -35 9 -45.5t42 -10.5h51v-139h-295v113q-143 -150 -327 -150q-82 0 -158 27.5t-119 72.5q-78 84 -78 246v486q0 29 -13 39t-48 10h-51zM383 1411h244 l147 -287h-143z" glyph-name="ugrave" horiz-adv-x="1189" unicode="ù"/><glyph d="M35 844v143h303v-676q0 -94 56.5 -147t156.5 -53q150 0 225 104q55 76 55 250v332q0 47 -59 47h-51v143h301v-792q0 -35 9 -45.5t42 -10.5h51v-139h-295v113q-143 -150 -333 -150t-281 113q-68 84 -68 233v486q0 29 -13 39t-48 10h-51zM526 1405h256l-260 -281h-147z" glyph-name="uacute" horiz-adv-x="1189" unicode="ú"/><glyph d="M35 844v143h303v-676q0 -94 57.5 -148t145.5 -54q180 0 250 131q41 74 40 225v332q0 47 -59 47h-51v143h301v-792q0 -35 9 -45.5t42 -10.5h51v-139h-295v113q-78 -82 -153.5 -116t-181.5 -34t-226.5 63t-120.5 283v486q0 29 -13 39t-48 10h-51zM283 1124l153 285h293 l148 -285h-123l-150 193h-47l-147 -193h-127z" glyph-name="ucircumflex" horiz-adv-x="1189" unicode="û"/><glyph d="M35 844v143h303v-676q0 -94 56.5 -147t156.5 -53q170 0 240 129q41 76 40 225v332q0 47 -59 47h-51v143h301v-792q0 -35 9 -45.5t42 -10.5h51v-139h-295v113q-143 -150 -325 -150q-121 0 -217 53q-139 78 -140 293v486q0 29 -13 39t-48 10h-51zM631 1126v209h174v-209 h-174zM352 1126v209h174v-209h-174z" glyph-name="udieresis" horiz-adv-x="1189" unicode="ü"/><glyph d="M16 989h410v-149h-64q-39 0 -38 -23v-2l2 -2v-4l200 -584l199 582v6h2v6q0 18 -37 19h-65v151h415v-149h-77q-43 0 -54 -33l-331 -930q-43 -121 -90.5 -164t-137.5 -43h-170v142h125q70 0 96 65l37 96l-297 834q-8 20 -17 25.5t-38 5.5h-70v151zM479 1401h256l-260 -281 h-147z" glyph-name="yacute" horiz-adv-x="1054" unicode="ý"/><glyph d="M348 -123q0 -47 5 -56t30 -9h72v-142h-412v142h68q29 0 38 14t9 61v1276q0 55 -60 56h-53v139h303v-504q68 90 132.5 125t166.5 35q190 0 309 -144.5t119 -375.5q0 -295 -176 -439q-113 -94 -264 -94q-84 0 -146.5 29.5t-140.5 107.5v-221zM614 858q-131 0 -216 -103 t-85 -265q-1 -162 89 -272t202 -109q112 0 193 86q39 41 62.5 126t23.5 177q0 174 -69 267t-200 93z" glyph-name="thorn" horiz-adv-x="1128" unicode="þ"/><glyph d="M16 989h410v-149h-64q-39 0 -38 -23v-2l2 -2v-4l200 -584l199 582v6h2v6q0 18 -37 19h-65v151h415v-149h-77q-43 0 -54 -33l-331 -930q-43 -121 -90.5 -164t-137.5 -43h-170v142h125q70 0 96 65l37 96l-297 834q-8 20 -17 25.5t-38 5.5h-70v151zM580 1128v209h174v-209 h-174zM301 1128v209h174v-209h-174z" glyph-name="ydieresis" horiz-adv-x="1054" unicode="ÿ"/><glyph d="M260 673.5q0 -241.5 131 -399.5t335 -158t359 195v723q-149 190 -355 190t-338 -154.5t-132 -396zM1085 1364h965v-281h-168v70q0 43 -82 43h-522v-401h686v-162h-686v-461h563q59 0 60 49v62h170v-283h-986v59q-111 -59 -184 -80.5t-191 -21.5t-245 48t-215 135 t-140.5 227.5t-52.5 299.5t55.5 305t143.5 234t207 135.5t263 47.5t359 -109v84z" glyph-name="OE" horiz-adv-x="2142" unicode="Œ"/><glyph d="M1305 868q-70 0 -129.5 -31.5t-90.5 -84.5q-32 -59 -55 -172h555q-29 135 -84 202q-74 86 -196 86zM548 860q-136 0 -221 -102t-85 -268t85 -269.5t224 -103.5t223 99t84 266t-87 272.5t-223 105.5zM1315 -43q-117 0 -201 41t-172 141q-100 -102 -182 -139t-207 -37 q-225 0 -363.5 143.5t-138.5 374.5q0 115 39 221.5t107 178.5q127 127 335 127q152 0 293 -68q57 -27 125 -96q76 88 159 127t212 39t240.5 -72t171.5 -203q39 -90 45 -301h-742q14 -100 28.5 -145t45.5 -84q80 -98 219 -99q88 0 144.5 42.5t105.5 146.5h180 q-33 -96 -61.5 -147.5t-73.5 -88.5q-123 -102 -309 -102z" glyph-name="oe" horiz-adv-x="1847" unicode="œ"/><glyph d="M18 1196v168h447v-168h-70q-45 0 -45 -18q0 -10 19 -41l237 -381l230 379q4 8 13 20q9 13 9 27t-41 14h-65v168h436v-168h-51q-39 0 -55.5 -11t-45.5 -59l-334 -544v-359q0 -33 10.5 -44t39.5 -11h65v-168h-420v168h70q23 0 32 13.5t9 45.5v355l-350 565q-29 49 -66 49 h-74zM655 1505v209h174v-209h-174zM377 1505v209h174v-209h-174z" glyph-name="Ydieresis" horiz-adv-x="1210" unicode="Ÿ"/><glyph d="M68 1083l153 285h293l148 -285h-123l-150 193h-47l-147 -193h-127z" glyph-name="circumflex" horiz-adv-x="731" unicode="ˆ"/><glyph d="M226 1343q44 0 130 -34l68 -27q45 -16 64 -16t33 14t36 61l100 -38q-43 -117 -76.5 -159t-90.5 -42q-58 0 -142 38t-112 40q-28 0 -68 -70l-100 37q41 113 77.5 154.5t80.5 41.5z" glyph-name="tilde" horiz-adv-x="724" unicode="˜"/><glyph d="M135 489v160h1063v-160h-1063z" glyph-name="endash" horiz-adv-x="1335" unicode="–"/><glyph d="M139 489v160h1501v-160h-1501z" glyph-name="emdash" horiz-adv-x="1779" unicode="—"/><glyph d="M262 1096v-19h80v-211h-203v187q0 227 203 313v-111q-51 -47 -65.5 -74.5t-14.5 -84.5z" glyph-name="quoteleft" horiz-adv-x="481" unicode="‘"/><glyph d="M217 1133v20h-78v211h203v-184q0 -230 -203 -316v113q49 45 63.5 72.5t14.5 83.5z" glyph-name="quoteright" horiz-adv-x="481" unicode="’"/><glyph d="M217 -475v20h-78v211h203v-184q0 -229 -203 -315v112q6 4 58 64q20 29 20 92z" glyph-name="quotesinglbase" horiz-adv-x="481" unicode="‚"/><glyph d="M262 1098v-21h80v-211h-203v185q0 119 48.5 194.5t154.5 120.5v-111q-51 -47 -65.5 -74.5t-14.5 -82.5zM594 1100v-21h80v-211h-203v185q0 119 48.5 194.5t154.5 120.5v-111q-51 -45 -65.5 -74.5t-14.5 -82.5z" glyph-name="quotedblleft" horiz-adv-x="813" unicode="“"/><glyph d="M551 1137v20h-78v211h201v-184q0 -230 -203 -316v113q51 45 65.5 73.5t14.5 82.5zM217 1133v20h-78v211h203v-184q0 -230 -203 -316v113q49 45 63.5 72.5t14.5 83.5z" glyph-name="quotedblright" horiz-adv-x="813" unicode="”"/><glyph d="M551 -18v18h-78v211h201v-184q0 -230 -203 -314v111q51 47 65.5 75.5t14.5 82.5zM217 -20v20h-78v211h203v-186q0 -119 -48.5 -193t-154.5 -121v111q49 47 63.5 74.5t14.5 83.5z" glyph-name="quotedblbase" horiz-adv-x="813" unicode="„"/><glyph d="M347 864q71 0 122 -50t51 -121t-51 -122t-122 -51t-121 50.5t-50 122t50 121.5t121 50z" glyph-name="bullet" horiz-adv-x="696" unicode="•"/><glyph d="M963 0v211h200v-211h-200zM551 0v211h201v-211h-201zM139 0v211h201v-211h-201z" glyph-name="ellipsis" horiz-adv-x="1302" unicode="…"/><glyph d="M258 813h131l-176 -397l176 -389h-129l-176 389z" glyph-name="guilsinglleft" horiz-adv-x="475" unicode="‹"/><glyph d="M215 813l176 -397l-176 -389h-129l176 389l-176 397h129z" glyph-name="guilsinglright" horiz-adv-x="475" unicode="›"/><glyph d="M852 127q61 0 180 41l64 -148q-156 -45 -278 -51t-257 77t-207 216q-47 90 -75 195h-148l43 127h82q-4 74 -4 96t2 37h-127l43 127h98q29 145 84 239q76 135 217.5 220.5t292.5 85.5q82 0 234 -39l-64 -150q-92 25 -149 25q-104 0 -200.5 -59.5t-150.5 -155.5 q-37 -76 -57 -166h434l-43 -127h-407q-2 -14 -2 -46t6 -87h377l-43 -127h-308q47 -156 144.5 -243t218.5 -87z" glyph-name="Euro" unicode="€"/><glyph d="M686 1364v-107h-266v-710h-129v710h-271v107h666zM1649 1364v-817h-115v696l-283 -698h-73l-275 698v-696h-119v817h187l241 -594l254 594h183z" glyph-name="trademark" horiz-adv-x="1751" unicode="™"/><glyph d="M350 840v-629q0 -43 2 -49v-4q0 -4 6 -6q14 -10 39 -11h70v-141h-418v141h60q35 0 45 12.5t10 55.5v631h-125v149h125v197q0 106 53 153q29 25 80 40.5t86 6.5h141v-151h-71q-59 0 -81 -22.5t-22 -86.5v-135h479v-790q0 -39 6.5 -50.5t28.5 -11.5h78v-139h-416v139h74 q23 0 31 13.5t8 48.5v592q0 29 -10.5 38t-42.5 9h-236z" glyph-name="uniFB01" horiz-adv-x="997" unicode="ﬁ"/><glyph d="M831 1384v-1177q0 -49 4.5 -57.5t30.5 -8.5h70v-141h-410v141h66q29 0 38 14.5t9 61.5v963q0 31 -13.5 43t-45.5 12h-127q-59 0 -81 -22.5t-22 -86.5v-135h174v-149h-174v-631q0 -43 2 -49v-4q0 -4 6 -6q14 -10 39 -11h70v-141h-418v141h60q35 0 45 12.5t10 55.5v631 h-125v149h125v197q0 104 53 151t172 47h442z" glyph-name="uniFB02" horiz-adv-x="997" unicode="ﬂ"/></font>
</defs>
</svg>
